<svg width="1024" height="210" version="1.1" viewBox="0 0 4096 840" xml:space="preserve" xmlns="http://www.w3.org/2000/svg"><g transform="translate(1536.0004,314.99999)"><g transform="scale(.9970962 1.0029115)" fill="#08a56b" stroke-width="0" aria-label="Cult  vate"><path d="m71.985328 209.39031c36.155702 0 62.105292-20.95511 66.231172-52.33348v-0.76003h-27.46965l-0.10858 0.54287c-4.0173 17.26354-18.783591 28.33826-38.652942 28.33826-26.709619 0-43.321699-22.25802-43.321699-57.97942v-0.21715c0-35.612824 16.61208-57.87084 43.213123-57.87084 19.760775 0 34.744218 12.269053 38.761518 30.835495l0.10858 0.434305h27.46965v-0.868608c-3.69158-32.029827-30.72692-54.61357-66.339748-54.61357-44.407455 0-71.8771042 31.378373-71.8771042 82.191798v0.21715c0 50.59627 27.5782242 82.08322 71.9856802 82.08322z"/><path d="m207.54419 207.87025c17.15496 0 29.20686-7.70888 34.74422-20.41223h1.84578v18.02356h27.03535v-118.673223h-27.03535v69.162713c0 17.80641-9.3375 29.09828-26.81819 29.09828-16.28635 0-23.12662-9.33751-23.12662-27.6868v-70.574193h-27.03535v76.763013c0 28.22968 13.68054 44.29888 40.39016 44.29888z"/><path d="m306.94736 205.48158h27.03534v-164.600739h-27.03534z"/><path d="m416.44804 206.02446c5.21163 0 10.20612-0.4343 14.11484-1.19433v-20.84653c-3.25727 0.32572-5.32021 0.4343-9.12036 0.4343-11.29187 0-15.96062-4.99448-15.96062-16.82923v-59.82521h25.08098v-20.955103h-25.08098v-29.098284h-27.46965v29.098284h-18.45787v20.955103h18.45787v66.23117c0 22.90947 11.18329 32.02983 38.43579 32.02983z"/><path d="m612.81349 205.48158h29.64116l42.0188-118.673223h-28.44683l-27.2525 92.289333h-1.84579l-27.46965-92.289333h-28.88113z"/><path d="m737.18902 207.43595c15.6349 0 28.22968-6.7317 34.74422-18.24072h1.84578v16.28635h26.70962v-81.10604c0-25.080979-17.15496-39.847272-47.66472-39.847272-28.22968 0-47.339 13.246233-49.94482 33.224162l-0.10858 0.97718h25.51529l0.10858-0.4343c2.71439-7.81745 10.74899-12.26906 23.12662-12.26906 14.54914 0 22.25801 6.51454 22.25801 18.34929v10.20612l-30.50976 1.84579c-28.88114 1.73721-45.05891 14.11484-45.05891 35.28709v0.21716c0 21.60656 16.39492 35.50425 38.97867 35.50425zm-12.26906-36.80716v-0.21715c0-9.77182 7.05742-15.30918 22.14945-16.28636l26.70961-1.73721v9.55466c0 14.11484-12.0519 24.75526-28.33825 24.75526-11.94333 0-20.52081-5.97166-20.52081-16.0692z"/><path d="m881.21681 206.02446c5.21163 0 10.20611-0.4343 14.11484-1.19433v-20.84653c-3.25727 0.32572-5.32021 0.4343-9.12036 0.4343-11.29187 0-15.96063-4.99448-15.96063-16.82923v-59.82521h25.08099v-20.955103h-25.08099v-29.098284h-27.46964v29.098284h-18.45787v20.955103h18.45787v66.23117c0 22.90947 11.18329 32.02983 38.43579 32.02983z"/><path d="m973.67112 207.87025c32.24698 0 48.09898-18.56644 51.89918-33.87562l0.3257-0.97718h-25.7324l-0.32574 0.76003c-2.60582 5.42879-10.96615 12.81193-25.62387 12.81193-18.34929 0-29.85831-12.37763-30.18404-33.65846h82.95185v-8.90321c0-35.82997-20.8466-59.499472-54.61359-59.499472-33.76704 0-55.3736 24.429532-55.3736 61.779562v0.10858c0 37.78434 21.38941 61.45384 56.67651 61.45384zm-0.97719-102.16972c15.09202 0 26.05817 9.66323 27.90397 29.09828h-56.3508c2.06294-18.89217 13.35481-29.09828 28.44683-29.09828z"/></g><g transform="matrix(.96463914 0 0 .96500475 -55.027911 48.214525)"><g transform="matrix(.02717856 0 0 .03831596 508.33221 2.1050733)"><path d="m2648.5 4320.3954c-135.6936-2.6435-241.2664-8.1102-356.5-18.4599-449.425-40.3653-793.2176-148.952-934.6791-295.2178-29.7537-30.7643-45.5924-56.019-59.9177-95.5383-61.8483-170.6224-153.3901-790.7232-252.3587-1709.469l-6.0097-55.7897-10.7012-11.7103c-11.5356-12.6236-23.0595-27.5402-28.96544-37.4933-15.44376-26.0267-45.36424-90.8513-65.72603-142.3995-53.44938-135.3132-104.17496-319.7446-136.64358-496.8176-1.71444-9.35-4.29593-21.5-5.73665-27-3.54889-13.548-3.78646-33.6311-0.55007-46.5 18.75594-74.5791 122.81806-143.8546 308.78817-205.5642 449.041-149.003 1275.7887-217.01413 2059-169.3804 559.2665 34.0138 1021.158 125.3735 1236.1343 244.501 75.2006 41.6718 118.2113 84.9445 129.6539 130.4436 1.689 6.7163 2.1309 11.4379 2.1056 22.5-0.033 14.4487-1.6404 23.4364-6.3132 35.2982-1.0186 2.586-6.2277 23.6018-11.5755 46.7018-70.1417 302.9746-142.4804 524.4703-199.0577 609.5-6.6912 10.0562-22.0792 29.8001-28.4475 36.5l-3.802 4-4.1564 39.5c-19.9928 189.9976-53.6268 491.0388-77.5376 694-68.0831 577.906-120.0715 924.6535-154.7195 1031.9325-18.1842 56.303-66.0182 116.847-133.0184 168.3628-113.0224 86.9018-288.5938 154.1703-510.766 195.6952-152.7267 28.5452-312.7901 44.2623-520 51.0602-29.8401 0.9789-196.8296 1.9616-228.5 1.3447z" fill="#f7b871"/><path d="m2602 4318.9794c-276.5056-7.407-511.1926-33.1556-716.5-78.6105-312.9342-69.2835-522.8349-180.5844-578.8594-306.9433-55.4343-125.0277-133.5628-613.2714-224.6553-1403.9256-9.2227-80.0498-29.3578-261.3131-37.1571-334.5l-5.275-49.5-8.7071-9.1777c-20.3508-21.4506-30.2351-36.4028-48.78625-73.7998-73.32784-147.8205-139.28224-363.2682-183.5492-599.5846-2.42752-12.9592-5.32009-26.9092-6.42794-31-6.41653-23.6938-3.71218-47.9769 7.95589-71.4379 69.89524-140.5386 466.1704-263.5975 1047.9614-325.4331 89.2324-9.4841 189.2991-17.9393 284.5-24.039 52.2441-3.3473 66.8644-4.1784 114.5-6.5086 16.775-0.8205 35.225-1.7305 41-2.0221s28.95-1.1957 51.5-2.0091c132.9244-4.79478 204.2565-5.82591 358.5-5.18224 122.6067 0.51164 153.0603 0.99045 235 3.69487 47.1345 1.55567 132.8818 5.12687 156.5 6.51787 4.95 0.2915 24.75 1.4302 44 2.5303 206.2199 11.7854 410.1522 32.4665 587 59.5287 394.8367 60.4199 667.5685 150.6548 765.7197 253.3428 27.2634 28.5236 39.8847 55.5881 39.9067 85.5739 0.01 12.2661-1.6406 21.4736-6.1689 34.4337-1.6473 4.7146-5.6672 20.3076-8.933 34.6511-47.3821 208.0974-103.0672 400.6055-148.5129 513.4209-27.5995 68.5138-48.3807 106.2281-76.8621 139.4921-6.1659 7.2013-8.707 10.9718-9.098 13.5-0.2984 1.9293-5.0407 45.8079-10.5384 97.5079-10.741 101.0081-12.8665 120.4129-30.4506 278-88.975 797.387-154.9988 1265.6832-195.6737 1387.8813-20.6349 61.9927-76.5172 128.2014-153.8888 182.3255-153.4854 107.3684-401.6134 180.4784-722 212.7348-85.3887 8.5968-155.8736 13.2212-269 17.6483-34.1805 1.3377-251.6277 1.9978-293 0.8895zm1350.5-386.9465c4.9308-2.3707 6.1023-3.3624 10.6713-9.0329 27.1821-33.7356 58.1642-153.4701 91.273-352.7368 31.1925-187.7336 66.9165-466.5443 82.4854-643.7632 3.8839-44.2098 4.7658-56.1986 8.5327-116 3.5356-56.1294 4.1244-141.7132 1.2039-175-5.7206-65.2034-16.9443-97.4545-37.1009-106.6096-4.8637-2.2091-12.6302-2.4335-16.3651-0.4728-36.0195 18.9089-85.5841 222.296-122.2335 501.5824-3.1565 24.0541-3.6358 27.9483-8.862 72-9.0495 76.2787-20.1665 194.9652-27.0697 289-1.1103 15.125-2.4726 33.35-3.0273 40.5-0.8431 10.8673-3.2076 47.2518-5.4912 84.5-12.192 198.857-10.4542 349.897 4.5666 396.9137 3.8611 12.0858 7.5856 17.835 12.9374 19.9703 3.4457 1.3748 3.9565 1.3235 8.4794-0.8511zm-636.5-1927.042c18.425-0.5171 39.125-1.186 46-1.4864 68.0012-2.9714 95.1363-4.5247 140.5-8.0426 100.6579-7.8059 176.6758-18.1307 268.5-36.4679 205.4877-41.0357 370.042-95.4847 493.5-163.2931 83.6026-45.9181 143.5-101.0171 143.5-132.004 0-19.011-19.652-21.9924-73.5129-11.1524-23.1911 4.6674-50.5685 11.2232-133.4871 31.9649-196.9302 49.261-313.7837 75.2324-475 105.5715-159.2243 29.9642-309.2371 46.9271-561 63.4356-4.675 0.3066-11.2 0.7692-14.5 1.0281-8.5651 0.672-89.438 5.1446-125.5 6.9407-16.775 0.8355-39.275 1.9704-50 2.5221-37.2103 1.9142-176.1895 7.72-251 10.4856-22.275 0.8234-51.975 1.9459-66 2.4943-14.025 0.5485-31.8 1.2429-39.5 1.5432-109.2947 4.2631-200.1746 8.6506-226.5 10.9351-3.025 0.2625-9.1 0.74-13.5 1.0611-65.0919 4.75-104.0305 11.7931-108.4059 19.6081-1.3201 2.3579-1.2978 2.9054 0.2131 5.2113 4.7821 7.2985 38.9016 18.0182 87.6928 27.5517 95.6821 18.6955 257.4922 37.4856 418 48.54 20.075 1.3825 39.875 2.7521 44 3.0434 73.0779 5.1602 217.8913 10.7421 309 11.9105 37.2056 0.4772 150.2594-0.3697 187-1.4008z" fill="#f5a452"/><path d="m2628.6055 2649.2715c-0.126-0.1256-17.5263-0.2695-38.6673-0.3197-45.9276-0.1089-105.2946-1.4031-159.4382-3.4758-23.2841-0.8913-59.8367-2.5089-67-2.9649-3.85-0.2451-11.725-0.6984-17.5-1.0072-13.0522-0.6979-25.167-1.4696-47.25-3.0095-67.5992-4.7138-146.7125-13.0462-209.25-22.0387-43.6597-6.278-54.0874-8.308-75-14.6007-141.7252-42.646-278.8786-97.9357-402-162.0555-14.3-7.4472-28.025-14.6597-30.5-16.0277-2.475-1.3679-9.675-5.3192-16-8.7805-16.3218-8.9321-43.9544-24.7891-61.5-35.2919-26.2603-15.7194-71.5-44.2405-71.5-45.0769 0-0.1638 7.0875 1.6827 15.75 4.1035 44.4043 12.4091 119.0942 30.2305 174.75 41.6964 124.2929 25.6061 270.0904 47.388 415 62.0001 19.25 1.9411 39.5 3.9886 45 4.5501 21.0563 2.1497 87.7062 7.6944 120.5 10.0246 23.9693 1.7032 42.0105 2.9461 51 3.5135 4.675 0.2951 11.2 0.7416 14.5 0.9924 3.3 0.2507 10.95 0.6985 17 0.9952 6.05 0.2966 13.475 0.7598 16.5 1.0293 5.1497 0.4587 50.302 2.7242 79.5 3.9889 7.15 0.3097 16.15 0.7557 20 0.9912s14.875 0.6791 24.5 0.9858 21.1 0.7716 25.5 1.0332c26.6172 1.5821 171.1767 4.3334 254 4.8341 90.591 0.5477 242.8768-1.8946 303.5-4.8675 5.775-0.2832 21.75-0.9648 35.5-1.5148s28.6-1.2076 33-1.4614c4.4-0.2539 12.95-0.7112 19-1.0165 68.2206-3.4416 192.5642-12.7392 240.5-17.9831 2.475-0.2707 11.475-1.1947 20-2.0532 8.525-0.8586 22.925-2.4226 32-3.4756s20.775-2.3908 26-2.9729c65.2873-7.2732 168.1509-22.8658 237-35.9256 289.6477-54.9428 497.0723-140.3882 610.7527-251.5902 8.598-8.4105 12.2644-11.4231 12.2574-10.0715-0.01 1.6168-8.0215 78.5839-9.4814 91.0715-0.2573 2.2-1.6132 14.8-3.0132 28-1.4001 13.2-2.771 26.025-3.0466 28.5-0.2755 2.475-3.4093 31.243-6.9639 63.9289-3.5546 32.686-6.8099 59.733-7.2339 60.1046-1.0572 0.9264-70.6908 21.6017-115.7711 34.3744-292.5816 82.8975-598.7659 141.6891-898.5 172.5245-58.8523 6.0544-132.9707 12.3994-182 15.5803-4.675 0.3033-11.2 0.7483-14.5 0.9889s-10.5 0.692-16 1.0032-16.75 0.9774-25 1.4805c-79.9721 4.8764-196.6951 8.7489-271.5 9.0075-20.625 0.071-50.2497 0.2146-65.8327 0.3184s-28.4358 0.086-28.5618-0.04zm-68.6055-831.517c-0.275-0.2626-25.025-0.7657-55-1.1182s-59-0.8451-64.5-1.0948c-5.5-0.2496-19.9-0.7048-32-1.0115s-27.4-0.7714-34-1.0326-18.3-0.7066-26-0.9897c-7.7-0.2832-24.575-0.9572-37.5-1.4978s-29.575-1.2257-37-1.5224-16.65-0.7385-20.5-0.9817c-3.85-0.2433-13.3-0.6948-21-1.0035-7.7-0.3086-16.475-0.7629-19.5-1.0096s-10.225-0.6881-16-0.9809c-19.3543-0.9815-34.6298-1.9059-83-5.0232-7.5582-0.4871-43.5184-3.047-56.5-4.022-34.3094-2.5769-94.7569-7.5718-114.5-9.4613-5.775-0.5527-19.95-1.9088-31.5-3.0136-373.8705-35.763-688.0491-98.586-887.5-177.4641-135.75608-53.6883-214.17394-112.4689-231.49911-173.5276-3.63268-12.8026-4.54223-32.7161-2.05947-45.0896 3.22404-16.0679 11.84039-34.0685 24.27106-50.7053 7.7664-10.3943 27.34141-29.8766 40.78752-40.5944 187.5249-149.4738 745.3871-263.7973 1435-294.0767 141.4486-6.21067 239.0593-7.94004 407.5-7.21966 122.7552 0.525 149.1632 0.93955 234 3.6733 635.3595 20.47356 1184.563 113.32966 1440.5 243.55116 69.9284 35.5798 115.5287 71.9408 138.1594 110.1663 5.9022 9.9693 11.7649 24.6588 13.7703 34.5027 2.0269 9.9494 2.0177 27.7074-0.019 37.5844-2.3055 11.1776-8.4352 27.049-14.0047 36.2621-29.8684 49.4078-101.2901 97.6311-209.7554 141.6247-90.3311 36.6384-207.1274 70.5295-342.6202 99.419-106.5088 22.7096-224.0849 42.4489-353.5299 59.3526-45.6064 5.9555-119.6165 14.4593-165.5 19.0159-14.025 1.3928-27.3 2.7481-29.5 3.0118-11.7307 1.406-119.6243 10.6994-139.5 12.0158-4.675 0.3096-10.75 0.7775-13.5 1.0398-2.75 0.2622-18.5 1.3751-35 2.4731-16.5 1.0979-32.7 2.2237-36 2.5018-6.7517 0.5689-86.7859 5.1572-104.5 5.9908-6.325 0.2977-14.875 0.7581-19 1.0232s-23.7 1.1479-43.5 1.9618c-49.6092 2.0393-59.3202 2.4054-80 3.0162-9.9 0.2924-22.5 0.7455-28 1.007s-24.4 0.7266-42 1.0336-36.05 0.7809-41 1.0532c-12.0564 0.6632-266.863 1.768-267.5 1.1599z" fill="#f18c3a"/><path d="m2558.5 1730.9312c-576.3895-5.9105-1099.8083-67.0653-1390.5-162.4621-137.7048-45.1909-213.83685-94.2186-227.53236-146.5269-1.88843-7.2127-2.14777-21.9451-0.51459-29.2327 14.54326-64.8949 128.49825-126.3491 331.27275-178.6503 29.2473-7.5437 75.8884-18.3665 107.7742-25.0084 13.475-2.8068 26.525-5.5362 29-6.0653 43.1029-9.2144 151.5671-27.4271 220.5-37.0252 12.1-1.6847 23.125-3.2486 24.5-3.4752 4.6709-0.7699 64.0677-8.3409 85.5-10.8983 33.6597-4.0164 78.1481-8.8944 110-12.0612 19.25-1.9139 37.25-3.7099 40-3.9912 4.4183-0.452 16.4235-1.5493 33.5-3.0618 9.5438-0.8454 51.2168-4.4148 58-4.9678 21.0904-1.7197 33.7224-2.6916 52-4.0009 11.275-0.8077 26.35-1.9121 33.5-2.4541 15.2174-1.1537 53.2534-3.4997 90-5.5512 14.3-0.7983 29.375-1.6747 33.5-1.9477 4.125-0.2729 13.35-0.7443 20.5-1.0474s16.15-0.7525 20-0.9985 12.625-0.6877 19.5-0.9814c6.875-0.2938 22.85-0.9754 35.5-1.5146 12.65-0.5393 36.95-1.433 54-1.9861s36.85-1.2316 44-1.5079 24.025-0.7561 37.5-1.0662 40.25-0.9627 59.5-1.4502c102.0225-2.5838 357.5999-1.1858 454 2.4834 7.7 0.293 26.825 0.9868 42.5 1.5416 49.2918 1.7448 108.1793 4.2519 128.5 5.4709 4.4 0.264 13.625 0.7267 20.5 1.0283s23.3 1.2072 36.5 2.0124 27.825 1.6917 32.5 1.9699c19.7753 1.1772 58.8212 3.7959 74.5 4.9966 3.3 0.2527 9.6 0.708 14 1.0118s13.175 0.9716 19.5 1.484c6.325 0.5125 15.55 1.1995 20.5 1.5268 4.95 0.3272 10.575 0.771 12.5 0.9861s6.875 0.6505 11 0.9675c19.4246 1.4931 84.801 7.3933 111.5 10.0629 28.0055 2.8002 82.7218 8.693 97 10.4465 4.4 0.5404 13.625 1.6511 20.5 2.4682 35.6039 4.2316 71.9341 8.8385 87.5 11.0955 1.65 0.2392 14.25 2.0088 28 3.9323 13.75 1.9236 27.7 3.948 31 4.4987s13.65 2.1543 23 3.5635c17.3565 2.6158 64.5774 10.331 79 12.9073 91.438 16.3337 162.5262 31.4706 226 48.1226 148.3891 38.9291 246.1301 81.2984 293.816 127.3649 17.2585 16.6724 26.3114 30.3893 30.7613 46.6091 1.8508 6.7465 2.1004 9.6613 1.6649 19.4434-0.4283 9.6192-1.0288 12.9149-3.6603 20.0872-11.5826 31.5688-46.9216 62.3218-105.0375 91.4065-217.3595 108.7796-719.3724 187.2207-1321.5444 206.4954-78.9517 2.5271-258.7924 5.3816-304 4.8251-6.6-0.081-43.95-0.4753-83-0.8758z" fill="#ca6411"/><path d="m2538.5 1730.3935c-10.45-0.1641-42.4-0.78-71-1.3686-436.5353-8.9841-838.4817-49.5704-1125-113.5962-35.9223-8.0273-93.7148-22.7293-92.3365-23.4898 2.2325-1.2319 63.5855-16.3942 92.457-22.8491 270.9012-60.5669 641.3678-99.962 1053.8795-112.0687 166.6282-4.8903 367.9117-4.6965 537.5 0.5175 438.1854 13.472 828.2647 58.1272 1097.5 125.6387 17.6 4.4133 32.602 8.3563 33.3378 8.7623 1.519 0.8382-63.2526 17.128-101.3378 25.4861-251.514 55.1965-587.4358 92.6288-960.5 107.03-42.4617 1.6392-88.6403 3.0635-149.5 4.6111-37.9599 0.9653-274.5655 1.9618-315 1.3267z" fill="#642310"/></g><g transform="matrix(.23782855 0 0 .22473323 519.32946 -50.001068)"><path d="m249 440.19304v-71.80697l-22.75-23.22946c-20.41489-20.84515-23.07838-23.22573-25.94924-23.19304-11.19653 0.12749-38.26882-7.7824-53.5023-15.63213-33.43717-17.23-53.429781-50.10819-58.823978-96.73702-1.78868-15.4618 0.373117-17.5493 16.186928-15.63061 39.95959 4.8483 70.59391 20.64068 88.33185 45.53619 11.44832 16.06792 19.90411 39.48112 23.10472 63.97459l1.44072 11.02541 15.98065 15.99615 15.98065 15.99616-8e-3 -86.99616-8e-3 -86.99615-7.42058-9.9663c-9.33692-12.53927-14.23307-20.7441-18.81799-31.5337-17.15366-40.367299-9.6949-80.828992 22.52858-122.211373 8.60317-11.0484497 12.68628-11.3469625 20.87441-1.5261104 16.19158 19.4202126 28.07728 43.7906656 31.87074 65.3477856 1.95842 11.129125 0.81839 31.845718-2.33269 42.389698-5.19044 17.36801-13.79731 33.99554-25.96675 50.16494l-5.73905 7.62541 0.25966 48.35483 0.25967 48.35482 33.6951-33.01882 1.3959-9.49059c3.02681-20.579 9.24242-39.10848 18.24931-54.40335 5.45213-9.25843 17.97613-22.93907 26.59775-29.05415 16.061-11.39164 42.66896-20.80392 66.71376-23.59927 10.96341-1.27457 13.95855-0.40391 15.86558 4.61194 1.87879 4.9416-2.82754 32.0873-8.20658 47.33474-15.61134 44.25201-46.83396 67.72585-100.91688 75.87147l-11.60606 1.74803-42.28788 41.21826v221.28174h-15z" fill="#48ca5b"/><path d="m200.5 322.31736c-26.33537-3.36193-52.52514-12.98465-68.70154-25.24252-24.04874-18.22322-39.344142-48.75555-43.823978-87.48042-1.78868-15.4618 0.373117-17.5493 16.186928-15.63061 32.91323 3.99336 58.44115 14.78585 76.69773 32.42567 14.95598 14.4507 24.75942 32.62802 31.20657 57.86249 1.85428 7.25773 5.10195 27.83091 4.4982 28.495-0.19891 0.2188-36.59978-36.98786-61.06391-62.41567-7.50624-7.80192-9.49792-9.34731-12-9.31111-1.65 0.0239-3.76981 0.62828-4.71069 1.34311-2.51198 1.90848-3.8988 6.23546-2.84824 8.8867 0.74457 1.87901 19.78376 21.8708 61.42662 64.5 3.89524 3.9875 6.86852 7.18258 6.60728 7.10017-0.26123-0.0824-1.82497-0.32217-3.47497-0.53281zm115-81.14841c4.4-4.38179 20.15-19.75673 35-34.16653s27.57295-27.27278 28.27323-28.5844c2.627-4.92041-1.20077-10.41802-7.25366-10.41802-2.632 0-7.61962 4.44193-37.5275 33.42169-38.44181 37.24885-36.49632 36.09638-33.50736 19.84912 5.14623-27.97366 14.81249-48.95542 29.95335-65.01724 12.55332-13.31691 23.67357-20.27849 44.06194-27.58401 12.71635-4.5565 24.15564-7.28299 36.65182-8.73574 10.96341-1.27457 13.95855-0.40391 15.86558 4.61194 1.87879 4.9416-2.82754 32.0873-8.20658 47.33474-16.10393 45.64831-49.06023 69.40188-106.31082 76.62454l-5 0.63079zm-51.49503-119.28409c-5e-3 -49.687963-0.0429-50.663409-2.07755-53.250001-1.60128-2.0357-2.95277-2.634859-5.9433-2.634859-7.22834 0-6.98412-1.918946-6.98412 54.87749 0 58.35344 1.27926 54.26124-11.34162 36.28065-16.43848-23.41942-23.83671-44.92252-23.84937-69.318654-0.0132-25.489588 10.68283-52.361761 31.465-79.0508592 5.54985-7.1272853 9.12996-9.40602034 13.18054-8.38939031 5.00133 1.25525511 21.18292 23.6153565 29.02017 40.1007635 8.23242 17.31664 11.52528 31.061331 11.52528 48.107534 0 17.632926-3.97793 33.104776-13.1162 51.014456-3.92336 7.68922-14.43038 23.87696-19.39299 29.87801l-2.48088 3-5e-3 -50.61514z" fill="#08a56b"/><path d="m185.20036 319.52258c-6.2148-1.29068-11.88667-2.57197-12.60415-2.84729-0.82694-0.31732-1.56442-3.36868-2.01444-8.33487-0.39046-4.30886-1.34994-11.17932-2.13217-15.2677-0.78224-4.08837-1.3159-7.51982-1.18592-7.62543 0.12997-0.10561 8.27226 8.07554 18.09397 18.18034 20.52485 21.11645 20.534 20.19211-0.15729 15.89495zm23.29964-14.88458c-3.85-4.17831-18.7-19.68173-33-34.45206-14.3-14.77032-28.79865-30.51749-32.21923-34.99372-10.49765-13.73739-28.2182-25.9389-47.53077-32.72739-7.942758-2.79193-9.059033-4.03059-6-6.65784 2.940541-2.52549 4.942851-2.7874 13.50653-1.76673 25.6548 3.05767 47.96993 10.66971 65.24347 22.25554 8.63367 5.79084 21.28934 18.95749 26.91659 28.00335 9.42396 15.14913 16.77449 36.24755 19.62416 56.32772 1.77303 12.49359 1.45494 12.68866-6.54075 4.01113zm109-65.19036c4.95-4.65992 12.13507-10.59139 15.96682-13.18105 8.38513-5.66702 17.61608-14.61025 23.49905-22.76659 2.38021-3.3 8.53661-10.32447 13.68089-15.60992 10.36316-10.64756 11.12604-12.62977 6.82705-17.73883l-2.52618-3.0022 2.0205-7.82453c2.10369-8.14668 5.01576-25.83939 5.02597-30.53598 5e-3 -2.29211 0.58586-2.86166 3.7559-3.68268 2.0625-0.53417 5.69703-1.47816 8.07674-2.09775s9.22538-1.77015 15.21259-2.55679c15.342-2.01575 17.96067-0.64763 17.96067 9.38357 0 7.67504-3.57967 26.82113-7.06278 37.77573-12.49106 39.2851-36.55762 62.83339-75.93722 74.30188-11.39274 3.3179-26.1178 6.11114-31.88099 6.0476l-3.61901-0.0399zm-53.1251-115.84443 0.49707-47.896784-2.88971-11.441991c-3.11427-12.331146-10.71679-29.445372-17.85274-40.188753-2.27124-3.419411-4.12952-6.698024-4.12952-7.285807s2.51598-4.182682 5.59108-7.9886642c8.91497-11.0338846 12.42035-11.1944003 20.76-0.9506252 30.75567 37.7778674 39.82526 77.1495374 26.48273 114.963154-5.3075 15.04181-16.95345 35.45329-25.78142 45.18626l-3.17456 3.5zm-20.66941 41.53784c-2.03802-2.67243-3.70549-5.13224-3.70549-5.46626s1.8-3.39226 4-6.79608l4-6.18878v11.65503c0 6.41027-0.13253 11.65504-0.29451 11.65504-0.16199 0-1.96199-2.18653-4-4.85895z" fill="#018e5c"/></g></g></g></svg>
