<svg version="1.1" viewBox="0 0 1024 1024" xml:space="preserve" xmlns="http://www.w3.org/2000/svg"><rect width="1024" height="1024" fill="#f5a452"/><g transform="matrix(1.1932014,0,0,1.1931827,241.99522,241.99998)"><path d="m468.527 6.592c-1.649-3.989-5.54-6.591-9.856-6.592-413.867 0-458.667 171.563-458.667 245.333 0 95.701 72.875 160 181.333 160 136.981 0 165.675-130.347 181.077-200.384 14.973-71.292 51.151-136.391 103.787-186.752 3.047-3.044 3.965-7.622 2.326-11.605z" fill="#08a56b"/><path d="m10.671 469.333c-5.891 0-10.667-4.776-10.667-10.667 0-63.424 109.973-266.923 283.349-350.933 5.302-2.568 11.682-0.353 14.251 4.949 2.568 5.302 0.353 11.682-4.949 14.251-175.083 84.843-271.318 281.878-271.318 331.734 0 5.891-4.775 10.666-10.666 10.666z" fill="#018e5c"/></g></svg>
